# Blender v2.79 (sub 0) OBJ File: 'general stuff.blend'
# www.blender.org
mtllib Commercial_TallFridge.mtl
o store_fridge_Cube.004
v -0.135000 -0.500000 1.865285
v -0.135000 -0.450000 1.885285
v -0.150000 -0.450000 1.865285
v -0.135000 0.450000 1.885285
v -0.135000 0.500000 1.865285
v -0.150000 0.450000 1.865285
v -0.135000 -0.500000 1.505285
v -0.150000 -0.450000 1.505285
v -0.135000 -0.450000 1.485285
v -0.135000 0.500000 1.505285
v -0.135000 0.450000 1.485285
v -0.150000 0.450000 1.505285
v 0.135000 -0.500000 1.865285
v 0.135000 0.500000 1.865285
v 0.135000 -0.500000 1.505285
v 0.135000 0.500000 1.505285
v -0.150000 0.058787 1.811119
v -0.150000 0.058787 1.784045
v -0.150000 0.147263 1.811119
v -0.150000 0.147263 1.784045
v -0.167999 0.058787 1.811119
v -0.167999 0.058787 1.784045
v -0.167999 0.147263 1.811119
v -0.167999 0.147263 1.784045
v -0.104202 -0.464874 1.868884
v -0.104202 0.455721 1.868884
v -0.104202 -0.464874 1.500646
v -0.104202 0.455721 1.500646
vn 1.0000 0.0000 0.0000
vn 0.0783 0.0000 -0.9969
vn 0.0000 0.0000 -1.0000
vn 0.3089 0.9511 0.0000
vn 0.1240 -0.9923 0.0000
vn 0.1008 0.0000 0.9949
vn -1.0000 0.0000 0.0000
vn 0.0000 1.0000 0.0000
vn 0.0000 -1.0000 -0.0000
vn 0.0000 0.0000 1.0000
vn -0.7779 -0.2334 0.5834
vn -0.7779 0.2334 0.5834
vn -0.7779 -0.2334 -0.5834
vn -0.7779 0.2334 -0.5834
vn -0.9578 0.2873 0.0000
vn -0.8000 0.0000 -0.6000
vn 0.0000 -0.3714 -0.9285
vn 0.0000 0.3714 -0.9285
vn 0.0000 -0.3714 0.9285
vn 0.0000 0.3714 0.9285
vn -0.8000 0.0000 0.6000
vn 0.0739 0.0000 -0.9973
vn 0.0739 0.0000 0.9973
vn -0.9578 -0.2873 0.0000
usemtl Dark.001
s off
f 15//1 16//1 14//1 13//1
f 3//2 6//2 26//2 25//2
f 20//3 18//3 22//3 24//3
f 8//4 3//4 25//4 27//4
f 6//5 12//5 28//5 26//5
f 12//6 8//6 27//6 28//6
f 21//7 23//7 24//7 22//7
f 19//8 20//8 24//8 23//8
f 18//9 17//9 21//9 22//9
f 17//10 19//10 23//10 21//10
usemtl Material.002
f 1//11 2//11 3//11
f 4//12 5//12 6//12
f 7//13 8//13 9//13
f 10//14 11//14 12//14
f 5//15 10//15 12//15 6//15
f 11//16 9//16 8//16 12//16
f 15//17 7//17 9//17
f 10//18 16//18 11//18
f 1//19 13//19 2//19
f 14//20 5//20 4//20
f 2//21 4//21 6//21 3//21
f 9//22 11//22 16//22 15//22
f 13//23 14//23 4//23 2//23
f 7//9 15//9 13//9 1//9
f 7//24 1//24 3//24 8//24
f 16//8 10//8 5//8 14//8
usemtl Material.009
f 26//7 28//7 27//7 25//7
