# Blender v2.79 (sub 0) OBJ File: 'officeStuff.blend'
# www.blender.org
g Desk_Cube
v 0.500000 0.004499 -0.250000
v 0.500000 0.004499 0.250000
v -0.500000 0.004499 0.250000
v -0.500000 0.004499 -0.250000
v 0.500000 0.704499 -0.250000
v 0.499999 0.704499 0.250000
v -0.500000 0.704499 0.250000
v -0.500000 0.704499 -0.250000
v 0.416667 0.004499 -0.250000
v -0.416666 0.004499 -0.250000
v 0.416666 0.004499 0.250000
v -0.416667 0.004499 0.250000
v 0.416667 0.704499 -0.250000
v -0.416666 0.704499 -0.250000
v 0.416666 0.704499 0.250000
v -0.416667 0.704499 0.250000
v 0.500000 0.004499 -0.208333
v 0.500000 0.004499 0.208333
v -0.500000 0.004499 0.208333
v -0.500000 0.004499 -0.208333
v 0.500000 0.704499 -0.208333
v 0.500000 0.704499 0.208334
v -0.500000 0.704499 0.208333
v -0.500000 0.704499 -0.208333
v 0.416666 0.704499 -0.208333
v 0.416666 0.704499 0.208333
v -0.416666 0.704499 -0.208333
v -0.416667 0.704499 0.208333
v 0.500000 0.616999 -0.250000
v 0.499999 0.616999 0.250000
v -0.500000 0.616999 0.250000
v -0.500000 0.616999 -0.250000
v 0.416667 0.616999 -0.250000
v -0.416666 0.616999 -0.250000
v 0.416666 0.616999 0.250000
v -0.416667 0.616999 0.250000
v -0.500000 0.616999 0.208333
v -0.500000 0.616999 -0.208333
v 0.500000 0.616999 -0.208333
v 0.500000 0.616999 0.208334
vt 0.669284 0.702803
vt 0.670986 0.702802
vt 0.670986 0.738384
vt 0.669284 0.738384
vt 0.648952 0.915569
vt 0.648952 0.585518
vt 0.648952 0.585518
vt 0.648952 0.915569
vt 0.645346 0.927205
vt 0.645346 0.517969
vt 0.668763 0.517969
vt 0.668763 0.927205
vt 0.648952 0.915569
vt 0.648952 0.585518
vt 0.648952 0.585518
vt 0.648952 0.915569
vt 0.653711 0.869210
vt 0.653711 0.124917
vt 0.653711 0.124917
vt 0.653711 0.869210
vt 0.653711 0.869210
vt 0.653711 0.124917
vt 0.653711 0.124917
vt 0.653711 0.869210
vt 0.648952 0.585518
vt 0.648952 0.915569
vt 0.648952 0.585518
vt 0.648952 0.915569
vt 0.650564 0.702803
vt 0.652266 0.702803
vt 0.652266 0.738384
vt 0.650564 0.738384
vt 0.652266 0.311404
vt 0.669284 0.311404
vt 0.669284 0.346985
vt 0.652266 0.346986
vt 0.650564 0.311405
vt 0.650564 0.346986
vt 0.648952 0.915569
vt 0.648952 0.585518
vt 0.648952 0.585518
vt 0.648952 0.915569
vt 0.648952 0.915569
vt 0.648952 0.585518
vt 0.648952 0.585518
vt 0.648952 0.915569
vt 0.670986 0.311404
vt 0.670986 0.346985
vt 0.653711 0.869210
vt 0.653711 0.124917
vt 0.653711 0.124917
vt 0.653711 0.869210
vt 0.653711 0.869210
vt 0.653711 0.124917
vt 0.653711 0.124917
vt 0.653711 0.869210
vt 0.653711 0.869210
vt 0.653711 0.124918
vt 0.648952 0.585518
vt 0.648952 0.915569
vt 0.648952 0.915569
vt 0.648952 0.585518
vt 0.653711 0.124917
vt 0.653711 0.869210
vt 0.653711 0.124917
vt 0.653711 0.869210
vt 0.653711 0.124917
vt 0.653711 0.869210
vt 0.658409 0.926999
vt 0.658409 0.069800
vt 0.658409 0.069800
vt 0.658409 0.926999
vt 0.658409 0.069801
vt 0.658409 0.927000
vt 0.658409 0.926999
vt 0.658409 0.069800
vt 0.658409 0.069800
vt 0.658409 0.069800
vt 0.658409 0.926999
vt 0.658409 0.926999
vt 0.658409 0.926999
vt 0.658409 0.069800
vt 0.658409 0.069800
vt 0.658409 0.926999
vt 0.032571 0.054890
vt 0.032571 0.054890
vt 0.032571 0.054890
vt 0.032571 0.054890
vt 0.032571 0.054890
vt 0.032571 0.054890
vt 0.032571 0.054890
vt 0.032571 0.054890
vt 0.032571 0.054890
vt 0.032571 0.054890
vt 0.032571 0.054890
vt 0.032571 0.054890
vn 0.0000 1.0000 0.0000
vn 1.0000 0.0000 0.0000
vn -0.0000 0.0000 1.0000
vn -1.0000 0.0000 -0.0000
vn 0.0000 0.0000 -1.0000
vn -0.4472 -0.0000 0.8944
vn -0.4472 -0.0000 -0.8944
vn 0.4472 0.0000 -0.8944
vn 0.4472 -0.0000 0.8944
vn 0.0000 -1.0000 0.0000
s off
f 28/1/1 23/2/1 7/3/1 16/4/1
f 40/5/2 22/6/2 6/7/2 30/8/2
f 36/9/3 16/10/3 7/11/3 31/12/3
f 38/13/4 24/14/4 8/15/4 32/16/4
f 34/17/5 10/18/5 4/19/5 32/20/5
f 29/21/5 1/22/5 9/23/5 33/24/5
f 30/8/3 6/7/3 15/25/3 35/26/3
f 35/26/3 15/25/3 16/27/3 36/28/3
f 22/29/1 26/30/1 15/31/1 6/32/1
f 26/30/1 28/1/1 16/4/1 15/31/1
f 13/33/1 14/34/1 27/35/1 25/36/1
f 25/36/1 27/35/1 28/1/1 26/30/1
f 5/37/1 13/33/1 25/36/1 21/38/1
f 21/38/1 25/36/1 26/30/1 22/29/1
f 31/39/4 7/40/4 23/41/4 37/42/4
f 37/42/4 23/41/4 24/14/4 38/13/4
f 29/43/2 5/44/2 21/45/2 39/46/2
f 39/46/2 21/45/2 22/6/2 40/5/2
f 14/34/1 8/47/1 24/48/1 27/35/1
f 27/35/1 24/48/1 23/2/1 28/1/1
f 1/22/2 29/21/2 39/49/2 17/50/2
f 3/51/4 31/52/4 37/53/4 19/54/4
f 2/55/3 30/56/3 35/57/3 11/58/3
f 13/59/5 33/60/5 34/61/5 14/62/5
f 5/44/5 29/43/5 33/60/5 13/59/5
f 14/62/5 34/61/5 32/16/5 8/15/5
f 20/63/4 38/64/4 32/20/4 4/19/4
f 12/65/3 36/66/3 31/52/3 3/51/3
f 18/67/2 40/68/2 30/56/2 2/55/2
f 33/69/6 9/70/6 17/71/6 39/72/6
f 11/73/7 35/74/7 40/75/7 18/76/7
f 12/77/8 19/78/8 37/79/8 36/80/8
f 38/81/9 20/82/9 10/83/9 34/84/9
f 12/85/10 3/86/10 19/87/10
f 18/88/10 2/89/10 11/90/10
f 1/91/10 17/92/10 9/93/10
f 10/94/10 20/95/10 4/96/10
