# Blender v2.81 (sub 16) OBJ File: ''
# www.blender.org
o Cone
v 0.000000 -0.250000 0.750000
v 0.250000 -0.250000 1.000000
v -0.000000 -0.250000 1.250000
v -0.250000 -0.250000 1.000000
v 0.000000 0.250000 1.000000
v 0.000000 -0.250000 0.250000
v 0.250000 -0.250000 0.500000
v -0.000000 -0.250000 0.750000
v -0.250000 -0.250000 0.500000
v 0.000000 0.250000 0.500000
v 0.000000 -0.250000 -0.250000
v 0.250000 -0.250000 0.000000
v -0.000000 -0.250000 0.250000
v -0.250000 -0.250000 0.000000
v 0.000000 0.250000 0.000000
v 0.000000 -0.250000 -0.750000
v 0.250000 -0.250000 -0.500000
v -0.000000 -0.250000 -0.250000
v -0.250000 -0.250000 -0.500000
v 0.000000 0.250000 -0.500000
v 0.000000 -0.250000 -1.250000
v 0.250000 -0.250000 -1.000000
v -0.000000 -0.250000 -0.750000
v -0.250000 -0.250000 -1.000000
v 0.000000 0.250000 -1.000000
vt 0.488286 0.021214
vt 0.488286 0.978786
vt 0.488286 0.021214
vt 0.488286 0.021214
vt 0.488286 0.021214
vt 0.488286 0.021214
vt 0.488286 0.978786
vt 0.488286 0.021214
vt 0.488286 0.021214
vt 0.488286 0.021214
vt 0.488286 0.021214
vt 0.488286 0.978786
vt 0.488286 0.021214
vt 0.488286 0.021214
vt 0.488286 0.021214
vt 0.488286 0.021214
vt 0.488286 0.978786
vt 0.488286 0.021214
vt 0.488286 0.021214
vt 0.488286 0.021214
vt 0.488286 0.021214
vt 0.488286 0.978786
vt 0.488286 0.021214
vt 0.488286 0.021214
vt 0.488286 0.021214
vn 0.6667 0.3333 -0.6667
vn 0.6667 0.3333 0.6667
vn -0.6667 0.3333 0.6667
vn -0.6667 0.3333 -0.6667
s off
f 1/1/1 5/2/1 2/3/1
f 2/3/2 5/2/2 3/4/2
f 3/4/3 5/2/3 4/5/3
f 4/5/4 5/2/4 1/1/4
f 6/6/1 10/7/1 7/8/1
f 7/8/2 10/7/2 8/9/2
f 8/9/3 10/7/3 9/10/3
f 9/10/4 10/7/4 6/6/4
f 11/11/1 15/12/1 12/13/1
f 12/13/2 15/12/2 13/14/2
f 13/14/3 15/12/3 14/15/3
f 14/15/4 15/12/4 11/11/4
f 16/16/1 20/17/1 17/18/1
f 17/18/2 20/17/2 18/19/2
f 18/19/3 20/17/3 19/20/3
f 19/20/4 20/17/4 16/16/4
f 21/21/1 25/22/1 22/23/1
f 22/23/2 25/22/2 23/24/2
f 23/24/3 25/22/3 24/25/3
f 24/25/4 25/22/4 21/21/4
