# Blender v2.79 (sub 0) OBJ File: 'walls.blend'
# www.blender.org
o windows_Cube.001
v -0.500000 -0.500000 0.025000
v -0.500000 0.500000 0.025000
v -0.500000 -0.500000 -0.025000
v -0.500000 0.500000 -0.025000
v 0.500000 -0.500000 0.025000
v 0.500000 0.500000 0.025000
v 0.500000 -0.500000 -0.025000
v 0.500000 0.500000 -0.025000
v -0.500000 -0.379913 0.025000
v -0.500000 0.379913 0.025000
v -0.500000 0.379913 -0.025000
v -0.500000 -0.379913 -0.025000
v 0.500000 0.379913 -0.025000
v 0.500000 -0.379913 -0.025000
v 0.500000 0.379913 0.025000
v 0.500000 -0.379913 0.025000
v 0.385523 -0.500000 -0.025000
v 0.070203 -0.500000 -0.025000
v -0.070203 -0.500000 -0.025000
v -0.385523 -0.500000 -0.025000
v -0.385523 0.500000 -0.025000
v -0.070203 0.500000 -0.025000
v 0.070203 0.500000 -0.025000
v 0.385523 0.500000 -0.025000
v -0.385523 -0.500000 0.025000
v -0.070203 -0.500000 0.025000
v 0.070203 -0.500000 0.025000
v 0.385523 -0.500000 0.025000
v 0.385523 0.500000 0.025000
v 0.070203 0.500000 0.025000
v -0.070203 0.500000 0.025000
v -0.385523 0.500000 0.025000
v 0.385523 -0.379913 0.025000
v 0.070203 -0.379913 0.025000
v -0.070203 -0.379913 0.025000
v -0.385523 -0.379913 0.025000
v 0.385523 0.379913 0.025000
v 0.070203 0.379913 0.025000
v -0.070203 0.379913 0.025000
v -0.385523 0.379913 0.025000
v -0.385523 -0.379913 -0.025000
v -0.070203 -0.379913 -0.025000
v 0.070203 -0.379913 -0.025000
v 0.385523 -0.379913 -0.025000
v -0.385523 0.379913 -0.025000
v -0.070203 0.379913 -0.025000
v 0.070203 0.379913 -0.025000
v 0.385523 0.379913 -0.025000
vn -1.0000 0.0000 0.0000
vn 0.0000 0.0000 -1.0000
vn 1.0000 0.0000 0.0000
vn 0.0000 0.0000 1.0000
vn 0.0000 -1.0000 0.0000
vn 0.0000 1.0000 0.0000
s off
f 10//1 2//1 4//1 11//1
f 48//2 24//2 8//2 13//2
f 13//3 8//3 6//3 15//3
f 40//4 32//4 2//4 10//4
f 17//5 7//5 5//5 28//5
f 21//6 4//6 2//6 32//6
f 25//4 36//4 9//4 1//4
f 36//4 40//4 10//4 9//4
f 7//3 14//3 16//3 5//3
f 14//3 13//3 15//3 16//3
f 17//2 44//2 14//2 7//2
f 44//2 48//2 13//2 14//2
f 1//1 9//1 12//1 3//1
f 9//1 10//1 11//1 12//1
f 12//2 11//2 45//2 41//2
f 44//1 33//1 37//1 48//1
f 42//2 46//2 47//2 43//2
f 37//5 38//5 47//5 48//5
f 3//2 12//2 41//2 20//2
f 20//2 41//2 42//2 19//2
f 19//2 42//2 43//2 18//2
f 18//2 43//2 44//2 17//2
f 16//4 15//4 37//4 33//4
f 43//3 47//3 38//3 34//3
f 34//4 38//4 39//4 35//4
f 33//6 44//6 43//6 34//6
f 5//4 16//4 33//4 28//4
f 28//4 33//4 34//4 27//4
f 27//4 34//4 35//4 26//4
f 26//4 35//4 36//4 25//4
f 8//6 24//6 29//6 6//6
f 24//6 23//6 30//6 29//6
f 23//6 22//6 31//6 30//6
f 22//6 21//6 32//6 31//6
f 3//5 20//5 25//5 1//5
f 20//5 19//5 26//5 25//5
f 19//5 18//5 27//5 26//5
f 18//5 17//5 28//5 27//5
f 15//4 6//4 29//4 37//4
f 37//4 29//4 30//4 38//4
f 38//4 30//4 31//4 39//4
f 39//4 31//4 32//4 40//4
f 11//2 4//2 21//2 45//2
f 45//2 21//2 22//2 46//2
f 46//2 22//2 23//2 47//2
f 47//2 23//2 24//2 48//2
f 39//5 40//5 45//5 46//5
f 42//1 35//1 39//1 46//1
f 35//6 42//6 41//6 36//6
f 41//3 45//3 40//3 36//3
