# Blender v2.79 (sub 0) OBJ File: 'walls.blend'
# www.blender.org
o DEFAULT_wall_Cube.002
v -0.500000 -0.500000 0.025000
v -0.500000 0.500000 0.025000
v -0.500000 -0.500000 -0.025000
v -0.500000 0.500000 -0.025000
v 0.500000 -0.500000 0.025000
v 0.500000 0.500000 0.025000
v 0.500000 -0.500000 -0.025000
v 0.500000 0.500000 -0.025000
vt 0.034941 0.596112
vt 0.034941 0.596112
vt 0.034941 0.596112
vt 0.034941 0.596112
vt 0.034941 0.596112
vt 0.034941 0.596112
vt 0.034941 0.596112
vt 0.034941 0.596112
vt 0.958858 0.958858
vt 0.958858 0.958858
vt 0.958858 0.958858
vt 0.958858 0.958858
vn -1.0000 0.0000 0.0000
vn 0.0000 0.0000 -1.0000
vn 1.0000 0.0000 0.0000
vn 0.0000 0.0000 1.0000
vn 0.0000 1.0000 0.0000
s off
f 1/1/1 2/2/1 4/3/1 3/4/1
f 3/4/2 4/3/2 8/5/2 7/6/2
f 7/6/3 8/5/3 6/7/3 5/8/3
f 5/8/4 6/7/4 2/2/4 1/1/4
f 8/9/5 4/10/5 2/11/5 6/12/5
